<?xml version="1.0" standalone="no"?>
<!DOCTYPE svg PUBLIC "-//W3C//DTD SVG 1.1//EN" "http://www.w3.org/Graphics/SVG/1.1/DTD/svg11.dtd" >
<!--
2013-9-30: Created.
-->
<svg>
<metadata>
Created by iconfont
</metadata>
<defs>

<font id="iconfont" horiz-adv-x="1024" >
  <font-face
    font-family="iconfont"
    font-weight="500"
    font-stretch="normal"
    units-per-em="1024"
    ascent="896"
    descent="-128"
  />
    <missing-glyph />
    
    <glyph glyph-name="huafei" unicode="&#58884;" d="M792.576 896q19.456 0 36.352-7.168t29.696-19.968 19.968-29.696 7.168-36.352l0-837.632q0-38.912-27.136-66.048t-66.048-27.136l-559.104 0q-38.912 0-66.048 27.136t-27.136 66.048l0 837.632q0 19.456 7.168 36.352t19.968 29.696 29.696 19.968 36.352 7.168l559.104 0zM419.84 802.816l185.344 0 0 47.104-185.344 0 0-47.104zM512-80.896q19.456 0 36.352 7.168t29.696 19.968 19.968 29.696 7.168 36.352-7.168 36.352-19.968 29.184-29.696 19.456-36.352 7.168q-38.912 0-65.536-26.624t-26.624-65.536 26.624-66.048 65.536-27.136zM792.576 756.736l-559.104 0 0-605.184 559.104 0 0 605.184z"  horiz-adv-x="1024" />

    
    <glyph glyph-name="more" unicode="&#58895;" d="M512 691.111111c-215.985778 0-391.111111-175.082667-391.111111-391.111111 0-215.985778 175.118222-391.111111 391.111111-391.111111 215.992889 0 391.111111 175.118222 391.111111 391.111111C903.111111 516.028444 727.992889 691.111111 512 691.111111zM512-47.669333c-191.708444 0-347.669333 155.953778-347.669333 347.669333 0 191.708444 155.953778 347.669333 347.669333 347.669333 191.708444 0 347.669333-155.953778 347.669333-347.669333C859.669333 108.291556 703.708444-47.669333 512-47.669333zM424.746667 493.692444 638.634667 298.812444 424.746667 108.682667 446.136889 82.542222 686.165333 298.812444 448.512 517.457778Z"  horiz-adv-x="1024" />

    
    <glyph glyph-name="icon" unicode="&#58883;" d="M884.358101 57.580808 361.733113 57.580808 214.178499-89.750725 214.178499 57.580808l-74.521251 0c-41.120536 0-74.445526 33.268708-74.445526 74.317613L65.211722 615.406506c0 41.047882 33.32499 74.344219 74.445526 74.344219l744.700853 0c41.10314 0 74.42813-33.296337 74.42813-74.344219l0-483.508086C958.786231 90.849516 925.461241 57.580808 884.358101 57.580808L884.358101 57.580808zM921.581887 615.406506c0 20.496823-16.708544 37.158295-37.223786 37.158295l-744.700853 0c-20.530592 0-37.22174-16.661472-37.22174-37.158295l0-483.508086c0-20.459984 16.690124-37.150108 37.22174-37.150108l74.521251 0 37.22174 0 0-37.167504 0-57.588603 84.008322 83.85892 10.896164 10.897188 15.427364 0 522.624988 0c20.515243 0 37.223786 16.690124 37.223786 37.150108L921.580864 615.406506 921.581887 615.406506zM511.998465 336.353976c-20.551058 0-37.202297 16.663518-37.202297 37.159318 0 20.531616 16.651238 37.195134 37.202297 37.195134 20.553105 0 37.222763-16.663518 37.222763-37.195134C549.221228 353.017494 532.55157 336.353976 511.998465 336.353976L511.998465 336.353976zM363.08797 336.353976c-20.550035 0-37.223786 16.663518-37.223786 37.159318 0 20.531616 16.673751 37.195134 37.223786 37.195134 20.551058 0 37.223786-16.663518 37.223786-37.195134C400.311757 353.017494 383.639029 336.353976 363.08797 336.353976L363.08797 336.353976zM657.421532 336.353976c-20.572548 0-37.22481 16.663518-37.22481 37.159318 0 20.531616 16.651238 37.195134 37.22481 37.195134 20.549012 0 37.201274-16.663518 37.201274-37.195134C694.623829 353.017494 677.970544 336.353976 657.421532 336.353976L657.421532 336.353976z"  horiz-adv-x="1024" />

    
    <glyph glyph-name="code" unicode="&#58890;" d="M0.399775 421.035168l0 474.964832 474.93285 0 0-474.964832-474.93285 0zM365.314511 785.598101l-255.664189 0 0-237.434443 255.664189 0 0 237.434443zM309.441939 603.332625l-145.006434 0 0 128.279843 145.006434 0 0-128.279843zM0.399775-128l0 476.116185 474.93285 0 0-476.116185-474.93285 0zM365.314511 237.714286l-255.664189 0 0-237.050659 255.664189 0 0 237.050659zM310.561309 53.529889l-146.157786 0 0 129.431195 146.157786 0 0-129.431195zM548.28359 421.035168l0 474.964832 474.964832 0 0-474.964832-474.964832 0zM914.349678 785.598101l-256.047973 0 0-237.434443 256.047973 0 0 237.434443zM858.093323 603.332625l-145.006434 0 0 128.279843 145.006434 0 0-128.279843zM913.678056-127.072522l0 126.872634 110.146043 0 0-126.872634-110.146043 0zM731.57249 182.73721l-73.206821 0 0-309.809732-109.634331 0 0 475.09276 292.443501 0 0-109.794241 72.918983 0 0 109.794241 109.730277 0 0-293.434943-292.28359 0 0 128.151915zM841.270785-127.072522l-109.730277 0 0 126.872634 109.730277 0 0-126.872634z"  horiz-adv-x="1024" />

    
    <glyph glyph-name="search" unicode="&#58917;" d="M948.032-6.784l-206.976 206.976C797.696 267.072 832 353.472 832 448c0 212.064-171.936 384-384 384S64 660.064 64 448s171.936-384 384-384c94.528 0 180.928 34.304 247.808 90.912l206.976-206.976c14.016-14.016 35.488-15.232 48-2.72C963.264-42.272 962.048-20.8 948.032-6.784zM448 128C271.264 128 128 271.264 128 448S271.264 768 448 768s320-143.264 320-320S624.736 128 448 128z"  horiz-adv-x="1024" />

    
    <glyph glyph-name="feedback" unicode="&#58942;" d="M800.038-64.011h-576.075c-52.98 0-95.984 43.004-95.984 95.984v639.892c0 52.98 43.004 95.984 95.984 95.984h447.925c17.717 0 31.995-14.277 31.995-31.995s-14.277-31.995-31.995-31.995l-447.925 0c-17.545 0-31.995-14.449-31.995-31.995v-639.892c0-17.717 14.449-31.995 31.995-31.995h575.903c17.717 0 31.995 14.277 31.995 31.995v512.086c0 17.717 14.277 31.995 31.995 31.995 17.717 0 31.995-14.277 31.995-31.995v-511.914c0.172-52.98-43.004-96.156-95.812-96.156zM612.026 448.075c-8.257 0-16.341 3.096-22.706 9.461-12.557 12.557-12.557 32.683 0 45.24l318.054 317.882c12.557 12.557 32.683 12.557 45.24 0s12.557-32.683 0-45.24l-318.054-318.054c-6.193-6.193-14.449-9.289-22.534-9.289zM479.919 448.075h-191.968c-17.717 0-31.995 14.277-31.995 31.995s14.277 31.995 31.995 31.995l191.968-0c17.717 0 31.995-14.277 31.995-31.995 0-17.717-14.277-31.995-31.995-31.995zM672.059 256.108h-384.108c-17.717 0-31.995 14.277-31.995 31.995s14.277 31.995 31.995 31.995h383.935c17.717 0 31.995-14.277 31.995-31.995s-14.277-31.995-31.823-31.995z"  horiz-adv-x="1024" />

    
    <glyph glyph-name="qianbao" unicode="&#58967;" d="M150.008832 28.090368c-38.249472 0-67.09248 27.485184-67.09248 63.93344l-1.2032 477.447168c-1.431552 2.23744-2.021376 4.681728-1.779712 7.323648l0.739328 8.103936 1.891328 0.136192c0.254976 4.082688 0.267264 11.226112-0.545792 22.378496-0.053248 0.723968-0.060416 1.142784-0.060416 1.202176-0.280576 29.62432 1.017856 49.487872 4.21376 64.319488 3.306496 15.362048 8.511488 24.941568 15.309824 34.599936 22.749184 32.375808 64.25088 32.375808 89.048064 32.375808L812.4928 739.910656l0-96.328704 47.666176 0c17.857536 0 34.814976-7.857152 47.744-22.121472 12.30336-13.571072 19.357696-31.604736 19.357696-49.477632l0-64.746496 39.06048 0 0-343.880704-37.881856 0 0-71.330816c0-36.448256-28.844032-63.93344-67.095552-63.93344L150.008832 28.091392zM154.8288 586.1376c-7.953408 0-16.05632-10.17344-16.05632-20.159488l0-467.965952c0-11.597824 12.251136-12.498944 16.007168-12.498944l699.358208 0c3.76832 0 16.060416 0.902144 16.060416 12.5184l0 65.344512L633.628672 163.376128c-44.993536 0-87.4496 18.221056-119.548928 51.303424-31.889408 32.866304-49.451008 76.096512-49.451008 121.725952 0 94.209024 75.812864 170.853376 169.00096 170.853376l236.550144 0 0 58.720256c0 9.986048-8.105984 20.159488-16.060416 20.159488L154.8288 586.138624zM635.160576 452.51584c-30.993408 0-60.090368-12.01664-81.94048-33.83296-21.915648-21.884928-33.985536-51.13344-33.985536-82.356224 0-31.219712 12.063744-60.440576 33.970176-82.279424 21.834752-21.76512 50.941952-33.753088 81.964032-33.753088l273.342464 0 0.731136 231.932928-274.084864 0.287744L635.160576 452.514816zM178.742272 682.486784c-12.93824-0.608256-21.51424-1.856512-30.995456-13.303808-5.666816-6.8352-9.132032-14.240768-9.66144-29.627392 7.035904 2.675712 14.041088 4.025344 20.948992 4.025344l596.216832 0 0 38.905856L178.742272 682.486784zM652.035072 262.945792c-19.453952 0-36.790272 7.944192-48.817152 22.372352-11.158528 13.386752-17.302528 31.748096-17.302528 51.705856 0 40.87296 32.902144 74.124288 73.348096 74.124288 40.439808 0 73.339904-33.251328 73.339904-74.124288 0-19.606528-9.083904-38.352896-25.572352-52.784128C691.566592 270.706688 671.521792 262.945792 652.035072 262.945792zM659.263488 359.709696c-12.290048 0-22.288384-10.176512-22.288384-22.685696 0-12.483584 9.998336-22.639616 22.288384-22.639616 12.29824 0 22.303744 10.156032 22.303744 22.639616C681.567232 349.533184 671.560704 359.709696 659.263488 359.709696z"  horiz-adv-x="1024" />

    
    <glyph glyph-name="wo" unicode="&#58891;" d="M372.90833 322.482227c-169.341448 111.108579-166.972428 309.963004-68.768101 421.613951 102.348833 116.358287 279.887193 127.374487 393.027092 22.006816 67.9699-63.303493 98.09176-142.622176 87.633278-234.845111-10.299865-90.780033-58.498936-159.3537-130.823125-205.234917 48.142787-30.295828 99.120212-56.329466 142.995693-91.271234 86.031759-68.517384 134.614581-160.776136 152.221056-269.300794 2.865338-17.662759-2.890921-31.80013-20.686714-35.397152-22.656633-4.58454-29.272493 12.377235-32.470414 30.341878-16.219857 91.127967-57.572818 168.686514-126.320452 230.746655-188.989477 170.6155-468.52362 125.859951-592.935552-96.771658-22.820367-40.836176-34.404517-88.175646-49.150772-133.176795-5.725558-17.473442-9.987748-35.136201-32.086664-31.150312-21.126748 3.806806-23.572518 20.502513-20.15458 39.848658 28.924559 163.748923 123.475581 274.468635 273.803468 340.422565 6.994494 3.070004 14.203887 5.648808 21.275131 8.549963C371.035627 319.100105 371.311927 320.06204 372.90833 322.482227zM509.948214 342.293989c125.547834-0.450267 230.900155 100.629631 230.741538 221.383141-0.158617 121.091211-107.787858 228.909769-228.781852 229.180952C391.205556 793.134383 284.405217 686.932694 282.128297 564.367881 279.943477 446.725309 386.621016 342.73914 509.948214 342.293989z"  horiz-adv-x="1024" />

    
    <glyph glyph-name="renminbi" unicode="&#58880;" d="M782.617 632.038l-174.536-294.616h183.786v-69.465h-206.999v-132.123h206.999v-66.498h-206.999v-189.371h-106.467v189.197h-214.679v66.498h214.679v132.298h-214.679v69.465h206.126l-174.012 294.616h97.216c104.372-190.593 118.335-222.358 140.676-273.497h2.094c7.68 20.944 28.449 63.356 62.484 127.062l76.447 146.261h107.863z"  horiz-adv-x="1025" />

    
    <glyph glyph-name="shang" unicode="&#58881;" d="M297.386667 265.386667c12.48-12.48 32.746667-12.48 45.226666 0L512 434.773333l169.386667-169.386666c12.48-12.48 32.746667-12.48 45.226666 0 6.293333 6.293333 9.386667 14.4 9.386667 22.613333 0 8.213333-3.093333 16.426667-9.386667 22.613333l-192 192c-12.48 12.48-32.746667 12.48-45.226666 0l-192-192c-12.48-12.48-12.48-32.746667 0-45.226666z"  horiz-adv-x="1024" />

    
    <glyph glyph-name="top" unicode="&#59001;" d="M1012.90496 795.69408H11.09504v-54.89152h494.52544c-12.7744-0.88576-25.2416-5.84192-35.00544-15.54432L84.76672 396.38528c-21.79072-21.61664-62.96064-42.93632-41.16992-64.56832 21.79072-21.62176 43.39712-7.89504 65.18784 13.73696L470.13376 658.9952v-631.71072c0-30.38208 11.1616-54.97856 41.86624-54.97856 30.68928 0 28.12928 54.97856 28.12928 54.97856V661.08416l363.10528-301.81888c21.79584-21.62176 43.40224-49.06496 65.18784-27.4432 21.79072 21.632-5.65248 42.95168-27.44832 64.56832l-385.84832 328.86784c-9.76896 9.70752-22.24128 14.65856-35.00544 15.54432h492.78464V795.69408z"  horiz-adv-x="1024" />

    
    <glyph glyph-name="re" unicode="&#59033;" d="M70.4 896h883.2A70.4 70.4 0 0 0 1024 825.6v-883.2a70.4 70.4 0 0 0-70.4-70.4H70.4A70.4 70.4 0 0 0 0-57.6V825.6A70.4 70.4 0 0 0 70.4 896z m714.24-658.176c11.328 0 21.12 7.04 29.632 19.712 11.264 16.896 18.304 55.616 21.76 116.16l-38.656 19.712c-1.408-35.2-4.224-61.952-8.448-80.256-4.224-16.896-9.152-25.344-14.08-25.344-5.632 0-11.264 7.04-16.896 20.416-14.784 31.68-21.824 87.296-21.824 167.552V611.648H593.216V703.872h-49.28v-92.224H462.272v-49.28h81.664a559.936 559.936 0 0 0-13.44-116.864 922.24 922.24 0 0 1-55.552 35.2l-26.752-39.424c22.528-12.672 45.76-27.456 68.288-43.648-21.12-54.912-53.504-99.968-97.92-133.76l37.376-33.088a336.64 336.64 0 0 1 101.376 135.168c26.752-22.528 54.208-47.168 80.96-74.624l28.16 42.944c-29.568 29.568-59.84 56.32-92.224 80.256 11.968 43.648 18.304 92.928 19.008 147.84h92.928v-86.592c0-102.08 14.08-171.072 42.24-207.68 15.488-19.712 34.496-29.568 56.32-30.272zM199.68 614.464v-49.28h99.968v-118.976c-38.72-8.448-78.144-16.192-119.04-21.824l12.032-47.872c35.84 7.04 71.808 14.08 107.008 21.824v-86.592c0-19.008-8.448-28.864-25.344-28.864a577.92 577.92 0 0 0-59.136 3.52l11.264-48.576H291.84c39.424 0 59.136 20.416 59.136 61.248V411.008c28.16 7.04 55.616 14.08 83.072 22.528v49.28c-26.752-8.448-54.912-16.896-83.072-24.64V565.184h85.888v49.28H351.04v91.52h-51.392v-91.52H199.68z m79.552-399.168c-25.344-50.688-54.912-95.04-88.704-131.648l41.536-30.272a607.872 607.872 0 0 1 89.408 141.504l-42.24 20.416z m150.656-17.6l-47.872-9.856c14.72-38.016 26.752-82.368 35.84-133.056l51.456 11.264a1213.056 1213.056 0 0 1-39.424 131.648z m145.728 9.856l-47.872-10.56c21.12-40.832 38.016-87.296 52.096-140.8l50.688 11.264a936.192 936.192 0 0 1-54.912 140.096z m137.28 16.192l-40.832-26.048a1117.44 1117.44 0 0 0 95.744-141.504l41.536 29.568c-22.528 39.424-54.208 85.184-96.448 137.984z"  horiz-adv-x="1024" />

    
    <glyph glyph-name="scan" unicode="&#58882;" d="M39.78 495.11a27.77 27.77 0 0 1 27.78 27.78V828.44h305.55a27.78 27.78 0 1 1 0 55.56H39.78A27.77 27.77 0 0 1 12 856.22v-333.33a27.77 27.77 0 0 1 27.78-27.78zM373.11-60.440000000000055H67.56V245.11a27.78 27.78 0 1 1-55.56 0v-333.33A27.77 27.77 0 0 1 39.78-116h333.33a27.78 27.78 0 0 1 0 55.56zM984.22 884H650.89a27.78 27.78 0 1 1 0-55.56h305.55v-305.55a27.78 27.78 0 1 1 55.56 0V856.22A27.76 27.76 0 0 1 984.22 884zM984.22 272.89a27.76 27.76 0 0 1-27.78-27.78v-305.55H650.89a27.78 27.78 0 1 1 0-55.56h333.33a27.76 27.76 0 0 1 27.78 27.78V245.11a27.76 27.76 0 0 1-27.78 27.78zM984.22 411.78H39.78a27.78 27.78 0 0 1 0-55.56h944.44a27.78 27.78 0 0 1 0 55.56z"  horiz-adv-x="1024" />

    
    <glyph glyph-name="shuidianmei" unicode="&#58908;" d="M509.951-61.957c-93.84 0-185.127 34.58-257.045 97.37-72.782 63.545-119.218 150.623-130.753 245.195-12.07 98.961 47.381 221.066 176.705 362.924C392.323 746.057 487.533 820.408 491.54 823.523c10.797 8.393 25.905 8.421 36.733 0.068 4.053-3.125 100.334-77.734 194.38-180.247 130.3-142.031 189.256-263.877 175.229-362.153-13.529-94.793-60.374-181.825-131.906-245.064-71.545-63.25-162.469-98.084-256.025-98.084z m0.074 823.265c-32-26.453-100.967-85.867-167.369-158.792-114.993-126.291-170.648-235.093-160.945-314.644 19.823-162.521 164.003-289.829 328.24-289.829 163.567 0 304.806 125.372 328.533 291.626 11.186 78.37-43.971 186.44-159.506 312.527-66.904 73.015-136.67 132.637-168.953 159.112zM468.446 106.555a20 20 0 0 0-19.599 23.948l28.782 142.978-141.777 0.616a20 20 0 0 0-15.474 32.564l219.535 271.892a20 20 0 0 0 35.197-16.36l-28.621-148.078h144.028a20.002 20.002 0 0 0 15.39-32.773l-222.063-267.56a20 20 0 0 0-15.398-7.227z m-90.8 207.36l124.475-0.541a20.006 20.006 0 0 0 15.416-7.363 20.006 20.006 0 0 0 4.104-16.584l-17.932-89.075 144.218 173.764H522.254a20 20 0 0 0-19.637 23.796l17.986 93.055-142.957-177.052z"  horiz-adv-x="1024" />

    
    <glyph glyph-name="-" unicode="&#58974;" d="M780.8 776.32H243.2A178.56 178.56 0 0 1 64 599.04v-390.4a178.56 178.56 0 0 1 179.2-176.64h537.6a178.56 178.56 0 0 1 179.2 177.28V599.04a178.56 178.56 0 0 1-179.2 177.28z m107.52-282.88h-67.84v-35.84h67.84v-248.32a106.88 106.88 0 0 0-107.52-106.24H243.2a106.88 106.88 0 0 0-107.52 106.24V457.6h174.08v36.48H135.68V599.04A106.88 106.88 0 0 0 243.2 704h537.6a106.88 106.88 0 0 0 107.52-106.24zM403.008 278.336l113.92 153.728 29.312-21.76-113.92-153.728zM592.192 409.6l27.072 24.512 139.264-153.6-27.008-24.512zM375.68 357.12c-48 0-82.56 39.04-86.4 98.56S310.4 571.52 359.04 576a240.64 240.64 0 0 0 174.08-64l5.76-5.12v-80.64l-4.48-5.12a220.16 220.16 0 0 0-154.88-64z m-14.08 181.76c-21.76 0-39.04-39.68-36.48-80.64 0-16 7.68-64 52.48-64a192 192 0 0 1 124.16 46.72v49.92a199.68 199.68 0 0 1-140.8 48zM768 357.12h-3.84a220.16 220.16 0 0 0-154.88 64l-7.68 5.12V506.24L607.36 512a238.08 238.08 0 0 0 174.72 64c48-3.84 72.96-64 69.12-119.04s-38.4-99.84-83.2-99.84z m-128 83.2a192 192 0 0 1 124.16-46.72c44.16 0 51.2 49.28 52.48 64 0 40.96-14.08 78.72-36.48 80.64a200.32 200.32 0 0 1-140.8-48zM567.04 400a64 64 0 0 0-60.16 64 60.16 60.16 0 1 0 120.32 0 64 64 0 0 0-60.16-64z m0 98.56a30.72 30.72 0 0 1-28.16-33.28 30.72 30.72 0 0 1 28.16-33.28 30.72 30.72 0 0 1 28.16 33.28 30.72 30.72 0 0 1-28.16 32.64z"  horiz-adv-x="1024" />

    
    <glyph glyph-name="zuji" unicode="&#59095;" d="M693.6 716.5c-9.9 5-22 1-27-8.9s-1-22 8.9-27c183.2-91.8 257.3-314.8 165.4-498S526.1-74.8 343 17 85.7 331.8 177.6 515C239.7 638.8 365.5 717.8 504 719.7l-37.9-38.9c-7.3-7.3-7.2-19.2 0.1-26.4 7.3-7.3 19.2-7.2 26.4 0.1l71.7 71.7c7.3 7.2 7.4 18.9 0.2 26.1l-0.2 0.2L492.6 824c-7.3 7.2-19 7.2-26.2-0.1-7.2-7.3-7.2-19 0.1-26.2l39.3-39.3C279.4 755 98.5 568.7 102 342.3s189.8-407.1 416.3-403.6S925.4 128.5 921.9 355c-2.4 153.3-90.1 292.5-227.4 360.8l-0.9 0.7zM510.2 565.1c-10.9 0-19.7-8.8-19.7-19.7v-195.2L633 158.7c6.6-8.9 19.2-10.7 28.1-4.1 8.9 6.6 10.7 19.2 4.1 28.1l-134.6 181V545.1c0.2 10.9-8.4 19.8-19.2 20.1-0.4-0.1-0.8-0.1-1.2-0.1z"  horiz-adv-x="1024" />

    
    <glyph glyph-name="gongyi" unicode="&#58892;" d="M1015.823511 771.796408c-33.945084 36.60122-72.25024 67.3556-110.772565 88.955498-27.379918 15.352132-81.438132 33.778031-143.665217 35.081041-75.407534 1.670526-140.791913-22.318225-189.070109-69.310115l-0.233874-0.217168L539.62343 794.114632l-24.62355 24.473203c-31.288948 30.453685-66.821032 52.053584-105.376767 64.231717A250.378405 250.378405 0 0 1 334.148758 894.312769a271.74443 271.74443 0 0 1-37.236019-2.589315C226.165971 881.950878 156.304583 845.199311 100.174916 788.251087 45.231323 732.505641 10.384155 664.147726 2.014821 595.739695a246.268912 246.268912 0 0 1 10.591134-109.218976c12.528943-37.23602 34.178958-71.398272 64.398769-101.551263l54.542667-54.509256-8.035229-8.051935a93.549444 93.549444 0 0 1 0-131.871305l0.167052-0.167053 7.08303-7.032913a92.93135 92.93135 0 0 1 60.138928-26.995697l7.099735-0.434337 0.718326-7.083029a93.549444 93.549444 0 0 1 26.728412-56.513888l7.283493-7.233376a92.547129 92.547129 0 0 1 65.985768-27.246276h7.417135l1.119252-7.032913a92.446897 92.446897 0 0 1 26.143729-51.001153l7.199966-7.166555a92.346666 92.346666 0 0 1 63.630327-27.179455l7.032914-0.167052 1.035726-6.966093a92.029266 92.029266 0 0 1 26.227255-51.953352l7.199966-7.183261a92.597244 92.597244 0 0 1 65.985768-27.179454 92.530423 92.530423 0 0 1 65.969064 27.196159l62.628011 62.678128a93.031581 93.031581 0 0 1 12.729407 15.903405l4.376778 6.882567 6.982797-4.209725a91.645045 91.645045 0 0 1 47.292585-12.979986c2.405557 0 4.844525 0.083526 7.199967 0.267284a106.312261 106.312261 0 0 1 65.150505 29.551602 96.071938 96.071938 0 0 1 26.594771 46.774722l1.520178 6.682103 7.600893-0.150347c2.823189 0 5.746609 0.133642 8.703439 0.38422a110.137765 110.137765 0 0 1 65.751895 30.553917c15.970227 15.519185 25.959971 34.579884 28.866686 55.127351l0.902084 6.314588 6.314587 0.801852a90.308624 90.308624 0 0 1 51.301847 25.208234 108.467239 108.467239 0 0 1 32.224442 65.835421 93.883549 93.883549 0 0 1-13.130332 59.487424l-3.474694 5.629672 53.055899 52.972372c127.327476 127.177128 74.438629 302.014357-34.446242 418.884342zM219.701037 226.353033a32.241148 32.241148 0 0 0-22.986435-9.37165 32.307969 32.307969 0 0 0-22.936319 9.421765l-7.133145 7.099735a33.00959 33.00959 0 0 0 0 45.939459l93.549444 93.549444a32.207737 32.207737 0 0 0 22.953024 9.405061 32.591958 32.591958 0 0 0 22.986435-9.321534l7.199966-7.316903a32.157621 32.157621 0 0 0 9.37165-22.986435 32.074095 32.074095 0 0 0-9.438471-22.902909z m102.019009-98.293738a32.307969 32.307969 0 0 0-23.019845-9.40506 32.291263 32.291263 0 0 0-23.019845 9.471881l-7.166556 7.11644a33.076411 33.076411 0 0 0 0 45.97287l148.910669 149.0109A32.591958 32.591958 0 0 0 440.561251 339.714913a32.107506 32.107506 0 0 0 22.886203-9.321534l7.316903-7.350314a32.892653 32.892653 0 0 0 0-45.872638z m107.732209-92.413486a32.341379 32.341379 0 0 0-23.003141-9.388355 31.73999 31.73999 0 0 0-22.769266 9.304828l-0.150347 0.133643-7.233377 7.199966a32.257853 32.257853 0 0 0-9.471881 23.019845 32.040685 32.040685 0 0 0 9.471881 22.836088l102.219473 102.252883a32.0908 32.0908 0 0 0 22.886203 9.388355 32.324674 32.324674 0 0 0 23.019846-9.488587l7.14985-7.099734a32.675484 32.675484 0 0 0 0-45.989575z m167.837725-30.704264L534.611853-57.820109a32.0908 32.0908 0 0 0-22.919614-9.338239 32.191032 32.191032 0 0 0-22.96973 9.354944l-7.216671 7.216672a32.224442 32.224442 0 0 0-9.421765 22.986434 32.191032 32.191032 0 0 0 9.471881 22.886204l62.661422 62.694833a32.257853 32.257853 0 0 0 22.986435 9.421765 33.176642 33.176642 0 0 0 5.011577-0.384221l2.990242-0.451042 2.00463-2.25521c0.384221-0.417631 0.768442-0.835263 1.169369-1.252894l27.663907-27.847665 0.384221-2.773073a33.410516 33.410516 0 0 0 0.35081-4.610651 32.224442 32.224442 0 0 0-9.488587-22.886203z m342.223913 207.746587c-14.015711-13.497848-29.534896-11.693681-46.073101 5.362388l-132.322348 136.532072a30.219812 30.219812 0 0 1-21.366024 9.238008 30.570622 30.570622 0 0 1-21.716836-8.569798 30.453685 30.453685 0 0 1-0.66821-42.999333l8.536387-8.820376 0.701621-0.768442 123.11775-126.95996c21.716835-22.418456 13.163743-39.925566 2.121568-50.650342-12.412007-12.044491-37.219315-21.432846-53.590467-4.627357l-135.429526 139.138093a30.453685 30.453685 0 0 1-43.016039 0.584684 30.453685 30.453685 0 0 1-0.584684-43.016039l112.175807-115.266279 0.618094-1.520179a30.236517 30.236517 0 0 1 6.180946-9.605523c21.716835-22.836088 13.882069-39.691693 3.441283-49.831784a45.104196 45.104196 0 0 0-29.902412-12.545649 31.088485 31.088485 0 0 0-22.669035 9.521997l-31.205421 31.38918-0.60139 1.169368a92.847823 92.847823 0 0 1-17.056068 23.387361l-7.316903 7.199966a91.561518 91.561518 0 0 1-30.821201 20.497351l-7.216671 2.906715 2.388852 7.40043A93.248749 93.248749 0 0 1 574.704472 226.737254l-7.250082 7.199966a92.563834 92.563834 0 0 1-29.000328 19.712204l-7.550776 3.24082 3.123883 7.600892a93.081697 93.081697 0 0 1-20.179952 101.467737l-7.333608 7.367018a92.664065 92.664065 0 0 1-65.952358 27.19616 92.864529 92.864529 0 0 1-54.993709-17.774394l-7.884882-5.729904-4.460303 8.670029a92.881234 92.881234 0 0 1-16.855606 23.103372l-7.250082 7.367019a93.048286 93.048286 0 0 1-66.019179 27.146044 92.630655 92.630655 0 0 1-65.885537-27.229571l-42.581702-42.598407-54.642899 54.475846c-46.457322 46.373796-66.303169 103.572599-57.399266 165.215 7.651008 53.072604 36.384052 107.164229 80.903564 152.335247 84.662247 85.915141 223.716814 131.804485 328.926528 29.585011l24.055571-23.921929-128.630486-127.928865c-17.674163-17.590637-21.482962-35.081042-21.566487-46.691195-0.116937-16.003637 6.464935-31.172011 18.993878-43.834597 20.330299-20.530762 54.860067-32.859242 92.380076-32.992884h0.6348c41.42904 0 79.283154 14.817564 106.612955 41.763144l51.1515 50.349648c16.705258 14.734037 34.245779 13.831954 60.87396 6.982797l13.464438-3.457988-9.37165-10.273734a30.47039 30.47039 0 0 1 0.484452-41.46245l262.857233-275.452997c17.289942-18.024973 7.316903-43.767776-4.844525-55.478161z m16.2041 131.804484L728.09215 583.026994l25.542339-4.82782a213.426375 213.426375 0 0 1 39.975682-4.009262c39.908861 0 76.09245 13.247269 110.638923 40.510251a30.203106 30.203106 0 0 1 11.376281 20.313593 30.203106 30.203106 0 0 1-6.331293 22.401751 30.203106 30.203106 0 0 1-20.313594 11.359575 30.203106 30.203106 0 0 1-22.401751-6.331292c-52.153815-41.14505-97.742464-27.363212-146.020659-12.779523-46.156628 13.94889-98.46079 29.752064-145.903722-13.364206l-0.902084-0.851968-51.468899-50.667047c-25.057887-24.740487-58.952855-24.974361-72.333767-23.92193-17.390173 1.353126-28.749749 6.398114-33.978495 9.304829l-9.739165 5.379093L614.797091 783.105867c46.423912 45.104196 105.877924 53.055899 147.624364 51.7863 46.941775-1.386536 90.525792-14.667216 112.910838-27.229571 33.093116-18.542836 66.286463-45.287954 95.988411-77.311933 82.440448-88.537867 141.359892-229.212843 35.999831-334.405852z"  horiz-adv-x="1124" />

    
    <glyph glyph-name="dingweiweizhi" unicode="&#58926;" d="M512 896C279.13 896 90.353 706.138 90.353 471.823c0-117.097 47.224-223.111 123.482-299.911L512-128l298.164 299.912a424.117 424.117 0 0 1 123.483 299.911C933.647 706.138 744.869 896 512 896z m0-612.593a187.934 187.934 0 0 0-187.453 188.537A187.874 187.874 0 0 0 512 660.36a187.934 187.934 0 0 0 187.452-188.537A187.874 187.874 0 0 0 512 283.347z"  horiz-adv-x="1024" />

    
    <glyph glyph-name="gongwenbao" unicode="&#58885;" d="M855.04512 668.6771200000001h-168.96V739.2c0 54.35904-50.44224 98.43712-112.63488 98.43712h-112.64c-61.70624 0-112.64-44.07296-112.64-98.43712v-70.51776H179.712c-61.70624 0-112.64-50.44736-112.64-112.64V49.66399999999999c0-61.70624 50.44224-112.63488 112.64-112.63488h675.33312c61.70112 0 112.63488 50.44224 112.63488 112.63488V556.04224c0 62.19264-50.44224 112.63488-112.63488 112.63488zM398.61248 748.99456c0 23.01952 32.32256 42.11712 62.68928 42.11712h112.64c30.3616 0 62.68416-19.58912 62.68416-42.11712v-79.82592H398.61248V748.99456zM918.2208 49.658879999999954c0-31.33952-31.83616-62.67904-62.68928-62.67904h-675.328c-31.34464 0-62.68928 31.83104-62.68928 62.67904V393.45152h287.96416v-62.68416c0-31.33952 25.46688-56.32 56.32-56.32h112.64c31.33952 0 56.32 25.46688 56.32 56.32V393.45152h287.95904l-0.49664-343.79264z m-469.65248 268.86144V512.45568h138.10688v-194.42688l-138.10688 0.49152z m469.65248 119.00416h-287.96416V499.72224c0 31.34464-25.46176 56.32-56.31488 56.32h-112.64c-31.34464 0-56.8064-24.97536-56.8064-56.32v-62.68416H116.53632V556.04224c0 31.34464 31.83104 62.68416 62.68416 62.68416h675.82464c31.33952 0 62.67904-31.83616 62.67904-62.68416l0.49664-118.51776z"  horiz-adv-x="1027" />

    
    <glyph glyph-name="qian" unicode="&#59105;" d="M555.904 526.48l-9.44-11.528c62.2-64.312 140.144-108.344 233.808-132.112a555.96 555.96 0 0 1-28.304-41.944c-39.504 13.632-76.368 30.576-110.608 50.848v-27.792H396.536v30.408c-35.304-21.32-73.568-41.416-114.808-60.28-8.736 13.976-17.48 26.032-26.208 36.168 100.304 39.488 183.304 91.56 249.008 156.216h51.376zM358.792 651.24h45.088a947.04 947.04 0 0 0-26.736-49.808h152.032v-35.12h-173.52c-22.72-34.256-46.832-63.608-72.344-88.08a343.608 343.608 0 0 1-26.736 30.928c40.88 38.456 74.952 85.816 102.216 142.08zM278.584 195.168H587.36c30.048 50.32 55.048 98.376 74.968 144.168l39.832-20.976a5469.048 5469.048 0 0 0-72.344-123.184h130.008v-37.224H278.584v37.216z m52.424 117.944l33.552 17.304a1104.08 1104.08 0 0 0 57.144-105.896l-35.648-19.92a1019.04 1019.04 0 0 1-55.048 108.512z m80.736 163.56a1229.8 1229.8 0 0 1-44.56 55.048l27.264 20.448c15.728-15.032 31.8-31.976 48.232-50.848l-30.936-24.648z m108.512 11.008c-33.552-31.456-72.168-60.808-115.856-88.072h223.848A546.384 546.384 0 0 0 520.256 487.68z m-39.84-149.928l36.168 9.96a1346.208 1346.208 0 0 0 35.648-115.848L513.44 220.32c-9.784 43.336-20.792 82.48-33.024 117.432zM587.36 651.24h43.512a734.48 734.48 0 0 0-24.128-49.808h167.76v-35.12H586.312a700.864 700.864 0 0 0-26.216-38.272 377.936 377.936 0 0 1-37.744 18.872c25.856 29.008 47.528 63.792 65.008 104.328z m84.92-181.904c-15.376 17.472-34.952 36.864-58.712 58.184l25.168 24.12c23.416-19.576 43.856-38.104 61.328-55.568l-27.784-26.736zM757.384-14.784H266.592c-38.328 0-102.256 3.096-121.304 11.656-31.2 13.936-32.08 140.456-32.08 141.72V629.4c0 46.192 4.088 104.408 11.648 121.288 13.96 31.208 140.464 32.08 141.736 32.08h490.792c46.176 0 104.416-4.088 121.312-11.632 31.192-13.976 32.088-140.48 32.088-141.752v-490.8c0-46.184-4.08-104.416-11.64-121.296-13.976-31.192-140.488-32.072-141.76-32.072z m-597.536 38.912c12.088-3.64 55.216-8.232 106.744-8.232h490.792c49.944 0 102.824 9.352 114.464 15.936 3.672 12.136 8.264 55.264 8.264 106.784v490.8c0 49.944-9.328 102.8-15.952 114.472-12.112 3.648-55.248 8.232-106.784 8.232H266.592c-49.936 0-102.808-9.344-114.464-15.96-3.648-12.096-8.232-55.232-8.232-106.752v-490.8c0-49.952 9.344-102.792 15.952-114.48z"  horiz-adv-x="1024" />

    
    <glyph glyph-name="cart" unicode="&#58984;" d="M280.7 157.5c-24 0-45.1 18.5-47.9 42.2L174 747.4h-47.2c-10.1 0-18.3 8.2-18.3 18.2s8.2 18.2 18.3 18.2h48.8c17.7 0 32.6-13.1 34.7-30.6l58.9-549.5c0.6-4.9 6.2-9.9 11.5-9.9l533.3 1c10.1 0 18.3-8.1 18.3-18.2s-8.2-18.3-18.3-18.3l-533.3-0.8zM175.6 747.4h0.2-0.2zM796.5 277.4l-539.1 2.9c-10.1 0.1-18.3 8.3-18.2 18.3 0.1 10 8.3 18.1 18.3 18.1h0.1l539-2.9c5.9 0 13.1 5.7 14.4 11.5l67.7 301c0.3 1.5 0.2 2.4-0.1 2.8-0.3 0.3-1.2 0.7-2.7 0.7h-659c-10.1 0-18.3 8.2-18.3 18.2 0 10.1 8.2 18.2 18.3 18.2h659c12.6 0 24-5.3 31.3-14.4 7.4-9.2 10-21.4 7.2-33.6l-67.7-301c-5-22.3-27.1-39.8-50.2-39.8zM362.8-15.899999999999977c-42.5 0-77.2 34.4-77.2 76.7 0 42.3 34.6 76.7 77.2 76.7s77.2-34.4 77.2-76.7c0-42.3-34.6-76.7-77.2-76.7z m0 117c-22.3 0-40.5-18.1-40.5-40.2 0-22.2 18.2-40.3 40.5-40.3s40.5 18.1 40.5 40.3c0 22.1-18.2 40.2-40.5 40.2zM721.3-15.899999999999977c-42.5 0-77.2 34.4-77.2 76.7 0 42.3 34.6 76.7 77.2 76.7 42.5 0 77.2-34.4 77.2-76.7 0-42.3-34.6-76.7-77.2-76.7z m0 117c-22.3 0-40.5-18.1-40.5-40.2 0-22.2 18.2-40.3 40.5-40.3s40.5 18.1 40.5 40.3c0 22.1-18.2 40.2-40.5 40.2z"  horiz-adv-x="1024" />

    
    <glyph glyph-name="xiala" unicode="&#58963;" d="M543.744 248.32c-7.168-7.168-16.896-13.824-26.112-11.776-9.216-1.536-17.92 5.632-25.088 11.776L270.848 471.04c-11.264 11.264-11.264 29.696 0 40.96s29.696 11.264 40.96 0l206.336-211.968L724.992 512c11.264 11.264 29.696 11.264 40.96 0s11.264-29.696 0-40.96L543.744 248.32z"  horiz-adv-x="1024" />

    


  </font>
</defs>
</svg>
